:SAMPLES-PER-SECOND 30
:FULLY-SPECIFIED
:DEGREES
193
root  -45.2585 40.3188 -4.49086 -5.24628 -86.199 0.276245
RightUpLeg  -11.7751 -9.18499 -2.1856
RightLeg  12.0248 -8.10843 4.11344
RightFoot  5.17282 0.782396 -5.14126
RightToes  5.82063e-011 0 -3.6325e-017
Spine  3.35993 -0.922786 9.18182
Spine1  9.08673 -0.095438 -1.43363
HEad  -17.606 -2.42119 -1.43255
LeftShoulder1  9.69227 -13.2763 -50.4219
LeftArm  -4.88878 16.0378 -27.4736
LeftForeArm  29.916 -11.7024 -6.18407
LeftHand  -0.244104 0.0205437 5.32207
RightShoulder  5.81237 9.10823 39.9504
RightArm  8.16377 -10.3723 32.5173
RightForeArm  -7.52557 24.9627 5.70557
RightHand  -1.06254 1.98783 -16.8157
LeftUpLeg  -13.7991 13.3444 3.54085
LeftLeg  58.0731 5.13631 9.3583
LeftFoot  -1.5695 0.411447 -4.70121
LeftToes  4.36525e-011 -9.98543e-011 1.0027e-011
194
root  -45.9181 40.5312 -4.57112 -16.7744 -86.544 12.366
RightUpLeg  -10.823 -8.97011 -2.77708
RightLeg  11.0426 -7.67208 4.34516
RightFoot  4.80554 0.761997 -5.13328
RightToes  5.82063e-011 0 -3.6325e-017
Spine  3.92424 -0.563489 8.93691
Spine1  8.80047 0.449734 -2.28301
HEad  -18.8397 -2.36312 -0.967659
LeftShoulder1  9.70211 -13.378 -50.1722
LeftArm  -5.5162 18.0884 -27.8554
LeftForeArm  28.6728 -11.746 -6.04182
LeftHand  -0.244104 0.0205437 5.32207
RightShoulder  5.78533 8.99972 40.1247
RightArm  8.26896 -8.45937 32.8266
RightForeArm  -5.77279 26.7168 6.04535
RightHand  -1.01871 1.78087 -16.587
LeftUpLeg  -16.0239 14.1927 2.56694
LeftLeg  52.8878 5.48366 8.19874
LeftFoot  -2.38516 0.374069 -4.59452
LeftToes  4.36525e-011 -9.98543e-011 1.0027e-011
195
root  -46.5224 40.735 -4.61988 -29.732 -86.7003 25.7615
RightUpLeg  -9.71591 -9.05528 -3.36513
RightLeg  9.93539 -7.03764 4.5295
RightFoot  4.2926 0.719868 -5.02216
RightToes  5.82063e-011 0 -3.6325e-017
Spine  4.53125 -0.307127 8.888
Spine1  8.30128 0.999107 -3.5962
HEad  -19.6317 -2.3585 -0.614258
LeftShoulder1  9.67434 -13.4721 -49.754
LeftArm  -5.64571 19.8486 -28.0836
LeftForeArm  27.1227 -11.7892 -6.01545
LeftHand  -0.244104 0.0205437 5.32207
RightShoulder  5.8806 9.03345 40.723
RightArm  8.09094 -7.30825 32.9209
RightForeArm  -5.11578 28.2437 6.37684
RightHand  -1.03319 1.79057 -16.7915
LeftUpLeg  -16.7225 14.7232 1.74626
LeftLeg  45.0547 5.5761 6.37751
LeftFoot  -3.70384 0.348406 -4.89259
LeftToes  4.36525e-011 -9.98543e-011 1.0027e-011
196
root  -47.1013 40.8865 -4.63839 -43.6478 -86.8443 39.9331
RightUpLeg  -8.72505 -9.10044 -3.80441
RightLeg  9.3151 -6.41059 4.43168
RightFoot  3.60496 0.65485 -4.79834
RightToes  5.82063e-011 0 -3.6325e-017
Spine  4.97852 -0.102952 8.64206
Spine1  8.02748 1.37633 -4.38305
HEad  -20.1452 -2.16246 -0.629228
LeftShoulder1  9.62383 -13.4308 -49.6155
LeftArm  -5.66484 20.9602 -28.1293
LeftForeArm  26.7624 -11.5705 -6.0468
LeftHand  -0.244104 0.0205437 5.32207
RightShoulder  6.09345 9.36219 41.1537
RightArm  8.20736 -6.68135 33.1041
RightForeArm  -5.71925 29.0491 6.60523
RightHand  -1.11173 2.08866 -17.348
LeftUpLeg  -15.8926 14.451 1.19167
LeftLeg  35.6931 4.71219 4.00064
LeftFoot  -4.77315 0.348347 -5.57068
LeftToes  4.36525e-011 -9.98543e-011 1.0027e-011
197
root  -47.68 40.9878 -4.62416 -57.5699 -87.0139 53.8453
RightUpLeg  -7.85374 -9.08428 -4.06475
RightLeg  9.35662 -5.70316 4.2009
RightFoot  2.93188 0.612941 -4.73051
RightToes  5.82063e-011 0 -3.6325e-017
Spine  5.13783 0.0251652 8.27672
Spine1  8.16845 1.52053 -4.47131
HEad  -20.334 -1.65177 -0.925358
LeftShoulder1  9.60184 -13.3582 -49.7145
LeftArm  -5.923 21.5889 -28.1672
LeftForeArm  27.4681 -11.1104 -6.05419
LeftHand  -0.244104 0.0205437 5.32207
RightShoulder  6.28645 9.74568 41.235
RightArm  9.03624 -6.20673 33.5676
RightForeArm  -6.27937 28.7866 6.5699
RightHand  -1.16999 2.35093 -17.6411
LeftUpLeg  -13.8034 12.956 0.98921
LeftLeg  26.1136 2.97813 1.95862
LeftFoot  -5.02723 0.38148 -6.34486
LeftToes  4.36525e-011 -9.98543e-011 1.0027e-011
198
root  -48.264 41.0507 -4.5643 -71.4674 -87.524 67.6151
RightUpLeg  -6.96235 -8.9457 -3.92678
RightLeg  9.57743 -4.98058 4.11571
RightFoot  2.20987 0.589863 -4.8317
RightToes  5.82063e-011 0 -3.6325e-017
Spine  4.81876 0.124323 8.55771
Spine1  8.71694 1.64292 -4.54176
HEad  -19.9683 -0.938946 -1.47156
LeftShoulder1  9.64159 -13.3581 -49.9196
LeftArm  -6.35733 22.0409 -28.2313
LeftForeArm  28.1914 -10.7613 -5.98737
LeftHand  -0.244104 0.0205437 5.32207
RightShoulder  6.338 9.86143 41.2111
RightArm  10.4932 -5.88233 34.1045
RightForeArm  -6.43603 27.8743 6.35491
RightHand  -1.18999 2.5173 -17.5712
LeftUpLeg  -11.0669 10.7129 1.41509
LeftLeg  17.2568 1.28525 0.586892
LeftFoot  -3.86642 0.45324 -6.58064
LeftToes  4.36525e-011 -9.98543e-011 1.0027e-011
199
root  -48.8464 41.0958 -4.46227 -94.3368 -88.4062 90.4646
RightUpLeg  -5.88601 -8.57749 -3.3241
RightLeg  9.24865 -4.49835 4.25315
RightFoot  1.54138 0.56106 -4.86946
RightToes  5.82063e-011 0 -3.6325e-017
Spine  4.00781 0.182754 9.58346
Spine1  9.39475 1.78897 -4.96911
HEad  -18.9009 -0.0277712 -2.24242
LeftShoulder1  9.64203 -13.3333 -49.9949
LeftArm  -6.89284 22.5404 -28.3747
LeftForeArm  28.015 -10.8267 -5.83353
LeftHand  -0.244104 0.0205437 5.32207
RightShoulder  6.409 9.878 41.6523
RightArm  12.304 -5.98932 34.0414
RightForeArm  -6.76159 26.8302 6.12142
RightHand  -1.22475 2.81971 -17.4314
LeftUpLeg  -8.43089 7.46993 2.6477
LeftLeg  10.1935 1.69069 -0.576168
LeftFoot  -0.798961 0.47188 -5.14773
LeftToes  4.36525e-011 -9.98543e-011 1.0027e-011
200
root  -49.4074 41.1554 -4.35355 -132.12 -89.0363 128.347
RightUpLeg  -4.60744 -8.14557 -2.69945
RightLeg  8.25967 -4.33157 4.45894
RightFoot  1.18109 0.531182 -4.76198
RightToes  5.82063e-011 0 -3.6325e-017
Spine  2.92466 0.111796 10.0624
Spine1  10.1426 1.60583 -4.84857
HEad  -17.6643 1.06541 -3.21981
LeftShoulder1  9.54203 -13.1317 -50.0748
LeftArm  -7.61106 22.7248 -28.4527
LeftForeArm  26.7355 -11.1241 -5.63518
LeftHand  -0.244104 0.0205437 5.32207
RightShoulder  6.6692 10.1228 42.6269
RightArm  14.1489 -6.37972 33.0477
RightForeArm  -6.95765 25.3978 5.77797
RightHand  -1.26697 3.21442 -17.2218
LeftUpLeg  -6.52011 4.62911 3.76301
LeftLeg  6.04879 3.29767 -1.52335
LeftFoot  2.72017 0.272 -2.32914
LeftToes  4.36525e-011 -9.98543e-011 1.0027e-011
201
root  -49.9235 41.2357 -4.28064 -147.117 -89.2637 143.457
RightUpLeg  -3.41503 -7.92257 -2.53829
RightLeg  7.33937 -4.43031 4.50422
RightFoot  0.944532 0.501452 -4.59337
RightToes  5.82063e-011 0 -3.6325e-017
Spine  1.97595 -0.0787018 9.00615
Spine1  10.728 0.966864 -3.53546
HEad  -16.8094 1.8885 -4.11056
LeftShoulder1  9.35131 -12.8092 -50.0426
LeftArm  -8.666 22.2819 -28.2961
LeftForeArm  25.3619 -11.3593 -5.37126
LeftHand  -0.244104 0.0205437 5.32207
RightShoulder  7.0155 10.4941 43.7172
RightArm  14.6625 -7.00785 31.5432
RightForeArm  -5.59261 23.0808 5.35104
RightHand  -1.27186 3.46981 -16.8073
LeftUpLeg  -5.34983 4.20961 3.99655
LeftLeg  4.66161 3.43206 -1.85849
LeftFoot  4.33859 0.038541 -0.445235
LeftToes  4.36525e-011 -9.98543e-011 1.0027e-011
202
root  -50.389 41.3103 -4.25249 -106.183 -89.4057 102.67
RightUpLeg  -2.59333 -7.91879 -2.79101
RightLeg  7.00823 -4.77371 4.31389
RightFoot  0.471018 0.459043 -4.4004
RightToes  5.82063e-011 0 -3.6325e-017
Spine  1.3664 -0.225785 7.03386
Spine1  10.8423 0.286075 -1.74615
HEad  -16.1661 2.04407 -4.40637
LeftShoulder1  8.99433 -12.4379 -49.252
LeftArm  -10.0852 21.3739 -27.8797
LeftForeArm  25.1475 -11.5969 -4.9614
LeftHand  -0.244104 0.0205437 5.32207
RightShoulder  7.14768 10.5861 44.2777
RightArm  10.9368 -8.26314 30.249
RightForeArm  -1.22628 20.0007 5.51868
RightHand  -1.25143 3.60607 -16.3049
LeftUpLeg  -4.47528 4.26464 3.92706
LeftLeg  4.19662 3.19864 -2.17197
LeftFoot  3.95134 0.0622432 -0.648535
LeftToes  4.36525e-011 -9.98543e-011 1.0027e-011
203
root  -50.8226 41.3663 -4.22857 -61.8202 -89.1015 58.5342
RightUpLeg  -1.96412 -7.94703 -3.07685
RightLeg  6.8096 -5.1845 4.07397
RightFoot  -0.0785338 0.41202 -4.17924
RightToes  5.82063e-011 0 -3.6325e-017
Spine  0.940241 -0.23766 5.63889
Spine1  10.4378 0.0260379 -0.851153
HEad  -15.1132 1.68826 -4.05144
LeftShoulder1  8.36915 -11.9642 -47.2071
LeftArm  -11.6157 20.3039 -27.0769
LeftForeArm  25.9175 -11.7337 -4.4797
LeftHand  -0.244104 0.0205437 5.32207
RightShoulder  6.95824 10.3199 43.9131
RightArm  3.50678 -10.4623 29.2245
RightForeArm  3.88654 16.9873 6.03167
RightHand  -1.23554 3.75366 -15.8549
LeftUpLeg  -3.60496 4.37019 3.94897
LeftLeg  3.31532 2.68732 -2.71028
LeftFoot  3.4227 0.16935 -1.46431
LeftToes  4.36525e-011 -9.98543e-011 1.0027e-011
204
root  -51.2451 41.4223 -4.16272 -53.3003 -88.9263 50.2253
RightUpLeg  -1.11389 -7.90998 -3.24119
RightLeg  6.0886 -5.35117 3.9886
RightFoot  -0.311794 0.380229 -3.95635
RightToes  5.82063e-011 0 -3.6325e-017
Spine  0.355922 -0.224997 5.25819
Spine1  10.152 0.0620157 -1.00971
HEad  -13.6467 1.42487 -3.71628
LeftShoulder1  7.52429 -11.2304 -44.4647
LeftArm  -12.9086 18.8457 -25.3904
LeftForeArm  26.2549 -11.3182 -4.09851
LeftHand  -0.244104 0.0205437 5.32207
RightShoulder  6.55714 9.91606 42.5539
RightArm  -3.08917 -12.7524 27.6267
RightForeArm  6.27544 14.4723 6.20069
RightHand  -1.23221 3.94191 -15.5077
LeftUpLeg  -2.62847 4.47036 4.03444
LeftLeg  2.13258 2.29568 -3.21879
LeftFoot  3.6125 0.154344 -1.345
LeftToes  4.36525e-011 -9.98543e-011 1.0027e-011
205
root  -51.6559 41.4851 -4.05635 -56.7474 -89.001 53.829
RightUpLeg  -0.0981625 -7.84637 -3.39338
RightLeg  5.03301 -5.19231 3.99649
RightFoot  -0.314887 0.358107 -3.7284
RightToes  5.82063e-011 0 -3.6325e-017
Spine  -0.371197 -0.297603 5.2056
Spine1  10.1257 0.05432 -1.42233
HEad  -12.0778 1.56411 -3.82003
LeftShoulder1  6.59622 -10.2581 -41.5687
LeftArm  -13.9529 17.2843 -22.6606
LeftForeArm  25.5882 -10.6299 -3.76622
LeftHand  -0.244104 0.0205437 5.32207
RightShoulder  6.05505 9.46734 40.5125
RightArm  -7.01829 -14.1078 24.5198
RightForeArm  6.62886 12.1725 6.20016
RightHand  -1.22263 3.99397 -15.3084
LeftUpLeg  -1.61257 4.54594 3.97783
LeftLeg  1.14526 2.30989 -3.41304
LeftFoot  3.72847 0.0787141 -0.764855
LeftToes  4.36525e-011 -9.98543e-011 1.0027e-011
